<?xml version="1.0" encoding="utf-8"?>
<svg version="1.1" id="图层_1" xmlns="http://www.w3.org/2000/svg" xmlns:xlink="http://www.w3.org/1999/xlink" x="0px" y="0px"
	 viewBox="0 0 729.8 205.5" style="enable-background:new 0 0 729.8 205.5;" xml:space="preserve">
<style type="text/css">
	.st0{fill:#5A5657;}
	.st1{fill:#028CD7;}
</style>
<path class="st0" d="M132.5,109.7c-1.6-3-4.6-4.7-7.1-6.9c3.4-3.4,5.3-4.4,5.3-8.1c0-3.8,0.7-8.2-1.8-11.7c-1.8-2.9-4.9-5.4-8.5-5.1
	c-14,0-28.1,0-42.1,0c-1.9,0-4.1-0.1-6.2-0.1c-2.6,1.9-4.8,4.4-7.2,6.6c0,1.9,0.1,3.6,0.1,5.5c15.4,0.5,30.9,0,46.3,0.3
	c3.1,0,4.4,1.4,4.4,3.5c0,3.4-1.5,4.1-4.3,4.1c-4.3,0-30.9-0.2-46.3-0.2c0,10.8-0.1,22.1-0.1,32.9c0.2,0,39.5,0,59.3,0
	c4.4,0.4,8.2-3.7,8.2-8C132.6,118.4,132.8,114,132.5,109.7z M111.5,117.3H79.1v-7.2h32.8c1.9,0,3.4,1.5,3.4,3.4
	C115.3,115.6,113.6,117.3,111.5,117.3z"/>
<path class="st0" d="M250.1,78.5c6.2-3,14.6-2.1,19.3,3.3c9,10.6,18.1,21.2,27,31.9c1,1.3,2.8,1,4.2,1.1c0.6-12.2,0.1-24.4,0.2-36.7
	c5.2-0.1,10.3-0.1,15.5,0c0.1,13.2,0,26.5,0.1,39.7c0.1,4,0.3,8.8-2.6,11.7c-1.7,1.5-1.2,2.8-6.8,3.6c-2.5,0.6-3.8,0.7-6.9,0.2
	c-6.3-0.2-10.5-7.1-14.2-11.3c-7.5-9.3-15.3-18.4-22.9-27.7c-0.9-1.9-4.9-2.1-4.6,0.6c-0.1,12-0.1,24,0,36c-15.3,0,0,0-15.3,0
	c0.1-13.6,0-27.3,0-40.9C243,85,246.2,80.8,250.1,78.5z"/>
<path class="st0" d="M153.6,78c13.3-0.2,26.5,0,39.8-0.1c8.7-0.2,17.5,6.8,17.9,15.7c0.3,6.7,0,13.4,0.1,20.1
	c0.4,8-6.1,15.6-13.9,16.9c-13.7,0.1-27.4,0-41.1,0.1c-8.4,0.4-15.9-6.8-16.9-14.9c-0.1-7,0-14-0.1-21C139,86.7,145.8,79.2,153.6,78
	 M161.7,91.1c-2.7,1-5.5,2.7-6.4,5.6c-0.2,4.3-0.2,8.7-0.1,13.1c0.1,3.7,3.2,7.4,7.1,7.2c8.7,0,17.4,0,26.1,0
	c3.6,0.3,7.7-2.4,7.4-6.3c-0.1-4.7,0.3-9.4-0.2-14c-0.9-4.2-5.3-6-9.2-5.7C178.2,91.1,169.9,90.7,161.7,91.1z"/>
<path class="st0" d="M219.9,78c5.1-0.1,10.2-0.1,15.3,0c0,17.6,0,52.7,0,52.7s-9.9,0-15.4,0C220,113.1,219.9,95.5,219.9,78z"/>
<path class="st0" d="M374.3,114.4c0,3.9-4.9,3.8-7.9,3.8c-6.3-0.2-12.7,0.4-18.9-0.3c-4.1-0.3-7.4-4.2-7.3-8.2
	c0-4.4-0.1-8.8,0.1-13.1c1-3.6,4.6-5.9,8.2-6c13.2-0.1,26.5,0.1,39.7-0.1c0-4.1,0-8.3,0-12.4c-14.6-0.1-29.2,0-43.8,0
	c-3.7,0-7.7-0.4-11.1,1.6c-4.7,2.7-9.2,7.4-9,13.1c0,7.7,0,15.4,0,23c-0.2,4.2,2.6,7.8,5.7,10.3c3.5,2.7,7.8,5,12.3,4.7
	c10.7-0.1,21.4,0,32.1,0c3.5,0.1,7.1-1,9.8-3.3c5.5-4.8,7-13.1,4.6-19.8c-2.3-6.2-9.1-9.4-15.4-9.7c-6,0-11.9,0-17.9,0
	c-0.2,4.2-0.2,8.3,0,12.5c5,0.1,13.1,0.1,14.9,0.1C373.8,110.6,374.3,111.7,374.3,114.4L374.3,114.4"/>
<path class="st0" d="M394.6,78c24-0.2,48,0,72-0.1c0.1,4.4,0.1,8.7,0.1,13c-9.1,0-18.2,0-27.2,0c-0.1,13.2,0,26.5,0,39.8
	c-5.9,0-11.8,0-17.7,0c0-13.3-0.1-26.6,0.1-39.9c-9-0.3-18.1,0.1-27.1-0.2C394.7,86.4,394.7,82.2,394.6,78z"/>
<path class="st0" d="M551.9,87.2c3.1-4.9,8.3-9.6,14.5-9.3c14.5,0.2,29-0.3,43.4,0.3c-0.2,4-0.2,8.1,0,12.1
	c-11.4,0.4-22.9,0.1-34.3,0.2c-4-0.3-7.6,2.7-9,6.2c-0.4,4.7-0.2,9.4-0.1,14.1c0.1,4,4.3,6.9,8.1,6.7c11.8-0.1,23.7,0.1,35.5-0.1
	c0.2,4.4,0,8.7,0.2,13.1c-13.5,0.6-27.1,0.1-40.7,0.3c-6.9,0.4-14.3-3.1-17.3-9.5c-2.6-5.5-1.4-11.7-1.6-17.5
	C550.7,98.2,549.4,92.3,551.9,87.2z"/>
<path class="st0" d="M617.2,78c5,0,10-0.1,15.1,0c0.2,6.7,0,13.3,0.2,20c12.4,0,24.8-0.1,37.1,0c0-2.6,0-5.2,0.1-7.8
	c5.1,0.1,10.3,0,15.4,0.1c0,13.5,0,27,0,40.4c-5.2,0.1-10.3,0-15.5,0c0-6.5-0.2-13.1,0.1-19.6c-12.4-0.3-24.8,0-37.2-0.1
	c-0.2,6.6,0,13.2-0.1,19.8c-5.1,0.1-10.2,0.1-15.3,0C617.3,113.1,617,95.5,617.2,78z"/>
<path class="st0" d="M473.8,92c1.9-7.4,8.6-14,16.6-13.8c17.7,0,35.5,0,53.2,0c0,4.2,0.1,8.3,0,12.5c-15.7,0-31.5,0-47.2,0
	c-1.9,0.1-4.2-0.2-5.6,1.4c-1.8,1.5-1.9,4-2.2,6.2c18.3,0.3,36.6,0,54.9,0.1c0,4,0.2,8.1-0.1,12.1c-18.2-0.2-36.4,0-54.6-0.1
	c-0.5,3.2,0.9,7.4,4.5,7.7c16.7,0.3,33.5-0.2,50.2,0.2c-0.1,4.2,0,8.4,0,12.6c-15.8,0-31.5,0-47.3,0c-4.7,0-9.7,0.3-13.9-2.2
	c-5.1-3.1-9.2-8.8-8.9-15C473.8,106.5,473.4,99.2,473.8,92z"/>
<g id="_x23_028cd7ff">
	<path class="st1" d="M137.5,31.8c25.4-4.2,51.3-5.1,76.9-3c22.2,1.8,44.2,6.1,65.2,13.4c-0.3,0-0.9,0-1.3,0
		c-21.3-4.9-43.2-7-65-6.7c-26.8,0.7-53.7,4.3-79.5,12c-21.9,6.5-43,16.1-61.3,30c-2.6,1.9-4.8,4.2-7.1,6.4
		C55,94.1,46.1,107.5,46.6,122.6c-0.2,13.8,8.2,25.7,17.8,34.8C53.6,151.4,44,143,37,132.9c-8-11.4-10.8-26.7-5.8-39.9
		C36.6,78,49,66.9,62,58.3C84.9,44.2,111.1,36.3,137.5,31.8z"/>
	<path class="st1" d="M650.4,66.4c17.3-5.7,36.7-6.2,53.8,0.4c-1.7,1.9,0,0-4.3,4.4c-14.4-4.5-31.7-4.2-46.1,0
		C650.4,66.4,653.9,71.2,650.4,66.4z"/>
	<path class="st1" d="M657.3,74.7c12.9-3.8,26.8-3.9,39.6-0.1c-1.4,1.9-2.5,3.4-3.7,4.8c-9.9-2.5-21.5-2-31.5,0.6
		C657.3,74.7,661.5,79.8,657.3,74.7z"/>
	<path class="st1" d="M664.4,83.3c8.2-1.7,16.8-1.8,25-0.2c-1.2,1.7-2.5,3.4-3.6,5.1c-5.7-0.9-11.4-0.7-17.1,0.1
		C667.2,86.6,665.8,84.9,664.4,83.3z"/>
	<path class="st1" d="M258.3,140.7c9.7-5,19.4-11.8,27.6-18.9c3.7,4.3,7.3,10.2,13.6,10.4c2.5,0.1,5,1.3,7.5,0.7
		c-11.8,11.7-26.9,19.5-42.2,25.9c-35.3,13.7-73.7,18.4-111.4,17.2c-27.5-1.2-55.1-5.4-81.1-14.9c20,4.5,40.5,7.4,61,7.1
		c21.2,0.4,42.3-1.8,63.1-6.1C217.9,157.7,238.9,150.9,258.3,140.7z"/>
</g>
</svg>
